%TF.GenerationSoftware,KiCad,Pcbnew,7.0.10*%
%TF.CreationDate,2024-03-07T22:41:58-05:00*%
%TF.ProjectId,Current,43757272-656e-4742-9e6b-696361645f70,rev?*%
%TF.SameCoordinates,Original*%
%TF.FileFunction,Legend,Bot*%
%TF.FilePolarity,Positive*%
%FSLAX46Y46*%
G04 Gerber Fmt 4.6, Leading zero omitted, Abs format (unit mm)*
G04 Created by KiCad (PCBNEW 7.0.10) date 2024-03-07 22:41:58*
%MOMM*%
%LPD*%
G01*
G04 APERTURE LIST*
%ADD10C,0.150000*%
%ADD11C,0.120000*%
%ADD12C,0.127000*%
%ADD13C,0.200000*%
G04 APERTURE END LIST*
D10*
X189899580Y-106287142D02*
X189947200Y-106239523D01*
X189947200Y-106239523D02*
X189994819Y-106096666D01*
X189994819Y-106096666D02*
X189994819Y-106001428D01*
X189994819Y-106001428D02*
X189947200Y-105858571D01*
X189947200Y-105858571D02*
X189851961Y-105763333D01*
X189851961Y-105763333D02*
X189756723Y-105715714D01*
X189756723Y-105715714D02*
X189566247Y-105668095D01*
X189566247Y-105668095D02*
X189423390Y-105668095D01*
X189423390Y-105668095D02*
X189232914Y-105715714D01*
X189232914Y-105715714D02*
X189137676Y-105763333D01*
X189137676Y-105763333D02*
X189042438Y-105858571D01*
X189042438Y-105858571D02*
X188994819Y-106001428D01*
X188994819Y-106001428D02*
X188994819Y-106096666D01*
X188994819Y-106096666D02*
X189042438Y-106239523D01*
X189042438Y-106239523D02*
X189090057Y-106287142D01*
X189090057Y-106668095D02*
X189042438Y-106715714D01*
X189042438Y-106715714D02*
X188994819Y-106810952D01*
X188994819Y-106810952D02*
X188994819Y-107049047D01*
X188994819Y-107049047D02*
X189042438Y-107144285D01*
X189042438Y-107144285D02*
X189090057Y-107191904D01*
X189090057Y-107191904D02*
X189185295Y-107239523D01*
X189185295Y-107239523D02*
X189280533Y-107239523D01*
X189280533Y-107239523D02*
X189423390Y-107191904D01*
X189423390Y-107191904D02*
X189994819Y-106620476D01*
X189994819Y-106620476D02*
X189994819Y-107239523D01*
X189423390Y-107810952D02*
X189375771Y-107715714D01*
X189375771Y-107715714D02*
X189328152Y-107668095D01*
X189328152Y-107668095D02*
X189232914Y-107620476D01*
X189232914Y-107620476D02*
X189185295Y-107620476D01*
X189185295Y-107620476D02*
X189090057Y-107668095D01*
X189090057Y-107668095D02*
X189042438Y-107715714D01*
X189042438Y-107715714D02*
X188994819Y-107810952D01*
X188994819Y-107810952D02*
X188994819Y-108001428D01*
X188994819Y-108001428D02*
X189042438Y-108096666D01*
X189042438Y-108096666D02*
X189090057Y-108144285D01*
X189090057Y-108144285D02*
X189185295Y-108191904D01*
X189185295Y-108191904D02*
X189232914Y-108191904D01*
X189232914Y-108191904D02*
X189328152Y-108144285D01*
X189328152Y-108144285D02*
X189375771Y-108096666D01*
X189375771Y-108096666D02*
X189423390Y-108001428D01*
X189423390Y-108001428D02*
X189423390Y-107810952D01*
X189423390Y-107810952D02*
X189471009Y-107715714D01*
X189471009Y-107715714D02*
X189518628Y-107668095D01*
X189518628Y-107668095D02*
X189613866Y-107620476D01*
X189613866Y-107620476D02*
X189804342Y-107620476D01*
X189804342Y-107620476D02*
X189899580Y-107668095D01*
X189899580Y-107668095D02*
X189947200Y-107715714D01*
X189947200Y-107715714D02*
X189994819Y-107810952D01*
X189994819Y-107810952D02*
X189994819Y-108001428D01*
X189994819Y-108001428D02*
X189947200Y-108096666D01*
X189947200Y-108096666D02*
X189899580Y-108144285D01*
X189899580Y-108144285D02*
X189804342Y-108191904D01*
X189804342Y-108191904D02*
X189613866Y-108191904D01*
X189613866Y-108191904D02*
X189518628Y-108144285D01*
X189518628Y-108144285D02*
X189471009Y-108096666D01*
X189471009Y-108096666D02*
X189423390Y-108001428D01*
X147792857Y-96279580D02*
X147840476Y-96327200D01*
X147840476Y-96327200D02*
X147983333Y-96374819D01*
X147983333Y-96374819D02*
X148078571Y-96374819D01*
X148078571Y-96374819D02*
X148221428Y-96327200D01*
X148221428Y-96327200D02*
X148316666Y-96231961D01*
X148316666Y-96231961D02*
X148364285Y-96136723D01*
X148364285Y-96136723D02*
X148411904Y-95946247D01*
X148411904Y-95946247D02*
X148411904Y-95803390D01*
X148411904Y-95803390D02*
X148364285Y-95612914D01*
X148364285Y-95612914D02*
X148316666Y-95517676D01*
X148316666Y-95517676D02*
X148221428Y-95422438D01*
X148221428Y-95422438D02*
X148078571Y-95374819D01*
X148078571Y-95374819D02*
X147983333Y-95374819D01*
X147983333Y-95374819D02*
X147840476Y-95422438D01*
X147840476Y-95422438D02*
X147792857Y-95470057D01*
X146840476Y-96374819D02*
X147411904Y-96374819D01*
X147126190Y-96374819D02*
X147126190Y-95374819D01*
X147126190Y-95374819D02*
X147221428Y-95517676D01*
X147221428Y-95517676D02*
X147316666Y-95612914D01*
X147316666Y-95612914D02*
X147411904Y-95660533D01*
X145935714Y-95374819D02*
X146411904Y-95374819D01*
X146411904Y-95374819D02*
X146459523Y-95851009D01*
X146459523Y-95851009D02*
X146411904Y-95803390D01*
X146411904Y-95803390D02*
X146316666Y-95755771D01*
X146316666Y-95755771D02*
X146078571Y-95755771D01*
X146078571Y-95755771D02*
X145983333Y-95803390D01*
X145983333Y-95803390D02*
X145935714Y-95851009D01*
X145935714Y-95851009D02*
X145888095Y-95946247D01*
X145888095Y-95946247D02*
X145888095Y-96184342D01*
X145888095Y-96184342D02*
X145935714Y-96279580D01*
X145935714Y-96279580D02*
X145983333Y-96327200D01*
X145983333Y-96327200D02*
X146078571Y-96374819D01*
X146078571Y-96374819D02*
X146316666Y-96374819D01*
X146316666Y-96374819D02*
X146411904Y-96327200D01*
X146411904Y-96327200D02*
X146459523Y-96279580D01*
X132866666Y-84709580D02*
X132914285Y-84757200D01*
X132914285Y-84757200D02*
X133057142Y-84804819D01*
X133057142Y-84804819D02*
X133152380Y-84804819D01*
X133152380Y-84804819D02*
X133295237Y-84757200D01*
X133295237Y-84757200D02*
X133390475Y-84661961D01*
X133390475Y-84661961D02*
X133438094Y-84566723D01*
X133438094Y-84566723D02*
X133485713Y-84376247D01*
X133485713Y-84376247D02*
X133485713Y-84233390D01*
X133485713Y-84233390D02*
X133438094Y-84042914D01*
X133438094Y-84042914D02*
X133390475Y-83947676D01*
X133390475Y-83947676D02*
X133295237Y-83852438D01*
X133295237Y-83852438D02*
X133152380Y-83804819D01*
X133152380Y-83804819D02*
X133057142Y-83804819D01*
X133057142Y-83804819D02*
X132914285Y-83852438D01*
X132914285Y-83852438D02*
X132866666Y-83900057D01*
X131914285Y-84804819D02*
X132485713Y-84804819D01*
X132199999Y-84804819D02*
X132199999Y-83804819D01*
X132199999Y-83804819D02*
X132295237Y-83947676D01*
X132295237Y-83947676D02*
X132390475Y-84042914D01*
X132390475Y-84042914D02*
X132485713Y-84090533D01*
X147242857Y-90829580D02*
X147290476Y-90877200D01*
X147290476Y-90877200D02*
X147433333Y-90924819D01*
X147433333Y-90924819D02*
X147528571Y-90924819D01*
X147528571Y-90924819D02*
X147671428Y-90877200D01*
X147671428Y-90877200D02*
X147766666Y-90781961D01*
X147766666Y-90781961D02*
X147814285Y-90686723D01*
X147814285Y-90686723D02*
X147861904Y-90496247D01*
X147861904Y-90496247D02*
X147861904Y-90353390D01*
X147861904Y-90353390D02*
X147814285Y-90162914D01*
X147814285Y-90162914D02*
X147766666Y-90067676D01*
X147766666Y-90067676D02*
X147671428Y-89972438D01*
X147671428Y-89972438D02*
X147528571Y-89924819D01*
X147528571Y-89924819D02*
X147433333Y-89924819D01*
X147433333Y-89924819D02*
X147290476Y-89972438D01*
X147290476Y-89972438D02*
X147242857Y-90020057D01*
X146290476Y-90924819D02*
X146861904Y-90924819D01*
X146576190Y-90924819D02*
X146576190Y-89924819D01*
X146576190Y-89924819D02*
X146671428Y-90067676D01*
X146671428Y-90067676D02*
X146766666Y-90162914D01*
X146766666Y-90162914D02*
X146861904Y-90210533D01*
X145719047Y-90353390D02*
X145814285Y-90305771D01*
X145814285Y-90305771D02*
X145861904Y-90258152D01*
X145861904Y-90258152D02*
X145909523Y-90162914D01*
X145909523Y-90162914D02*
X145909523Y-90115295D01*
X145909523Y-90115295D02*
X145861904Y-90020057D01*
X145861904Y-90020057D02*
X145814285Y-89972438D01*
X145814285Y-89972438D02*
X145719047Y-89924819D01*
X145719047Y-89924819D02*
X145528571Y-89924819D01*
X145528571Y-89924819D02*
X145433333Y-89972438D01*
X145433333Y-89972438D02*
X145385714Y-90020057D01*
X145385714Y-90020057D02*
X145338095Y-90115295D01*
X145338095Y-90115295D02*
X145338095Y-90162914D01*
X145338095Y-90162914D02*
X145385714Y-90258152D01*
X145385714Y-90258152D02*
X145433333Y-90305771D01*
X145433333Y-90305771D02*
X145528571Y-90353390D01*
X145528571Y-90353390D02*
X145719047Y-90353390D01*
X145719047Y-90353390D02*
X145814285Y-90401009D01*
X145814285Y-90401009D02*
X145861904Y-90448628D01*
X145861904Y-90448628D02*
X145909523Y-90543866D01*
X145909523Y-90543866D02*
X145909523Y-90734342D01*
X145909523Y-90734342D02*
X145861904Y-90829580D01*
X145861904Y-90829580D02*
X145814285Y-90877200D01*
X145814285Y-90877200D02*
X145719047Y-90924819D01*
X145719047Y-90924819D02*
X145528571Y-90924819D01*
X145528571Y-90924819D02*
X145433333Y-90877200D01*
X145433333Y-90877200D02*
X145385714Y-90829580D01*
X145385714Y-90829580D02*
X145338095Y-90734342D01*
X145338095Y-90734342D02*
X145338095Y-90543866D01*
X145338095Y-90543866D02*
X145385714Y-90448628D01*
X145385714Y-90448628D02*
X145433333Y-90401009D01*
X145433333Y-90401009D02*
X145528571Y-90353390D01*
X133196666Y-78959580D02*
X133244285Y-79007200D01*
X133244285Y-79007200D02*
X133387142Y-79054819D01*
X133387142Y-79054819D02*
X133482380Y-79054819D01*
X133482380Y-79054819D02*
X133625237Y-79007200D01*
X133625237Y-79007200D02*
X133720475Y-78911961D01*
X133720475Y-78911961D02*
X133768094Y-78816723D01*
X133768094Y-78816723D02*
X133815713Y-78626247D01*
X133815713Y-78626247D02*
X133815713Y-78483390D01*
X133815713Y-78483390D02*
X133768094Y-78292914D01*
X133768094Y-78292914D02*
X133720475Y-78197676D01*
X133720475Y-78197676D02*
X133625237Y-78102438D01*
X133625237Y-78102438D02*
X133482380Y-78054819D01*
X133482380Y-78054819D02*
X133387142Y-78054819D01*
X133387142Y-78054819D02*
X133244285Y-78102438D01*
X133244285Y-78102438D02*
X133196666Y-78150057D01*
X132339523Y-78054819D02*
X132529999Y-78054819D01*
X132529999Y-78054819D02*
X132625237Y-78102438D01*
X132625237Y-78102438D02*
X132672856Y-78150057D01*
X132672856Y-78150057D02*
X132768094Y-78292914D01*
X132768094Y-78292914D02*
X132815713Y-78483390D01*
X132815713Y-78483390D02*
X132815713Y-78864342D01*
X132815713Y-78864342D02*
X132768094Y-78959580D01*
X132768094Y-78959580D02*
X132720475Y-79007200D01*
X132720475Y-79007200D02*
X132625237Y-79054819D01*
X132625237Y-79054819D02*
X132434761Y-79054819D01*
X132434761Y-79054819D02*
X132339523Y-79007200D01*
X132339523Y-79007200D02*
X132291904Y-78959580D01*
X132291904Y-78959580D02*
X132244285Y-78864342D01*
X132244285Y-78864342D02*
X132244285Y-78626247D01*
X132244285Y-78626247D02*
X132291904Y-78531009D01*
X132291904Y-78531009D02*
X132339523Y-78483390D01*
X132339523Y-78483390D02*
X132434761Y-78435771D01*
X132434761Y-78435771D02*
X132625237Y-78435771D01*
X132625237Y-78435771D02*
X132720475Y-78483390D01*
X132720475Y-78483390D02*
X132768094Y-78531009D01*
X132768094Y-78531009D02*
X132815713Y-78626247D01*
X144052857Y-93729580D02*
X144100476Y-93777200D01*
X144100476Y-93777200D02*
X144243333Y-93824819D01*
X144243333Y-93824819D02*
X144338571Y-93824819D01*
X144338571Y-93824819D02*
X144481428Y-93777200D01*
X144481428Y-93777200D02*
X144576666Y-93681961D01*
X144576666Y-93681961D02*
X144624285Y-93586723D01*
X144624285Y-93586723D02*
X144671904Y-93396247D01*
X144671904Y-93396247D02*
X144671904Y-93253390D01*
X144671904Y-93253390D02*
X144624285Y-93062914D01*
X144624285Y-93062914D02*
X144576666Y-92967676D01*
X144576666Y-92967676D02*
X144481428Y-92872438D01*
X144481428Y-92872438D02*
X144338571Y-92824819D01*
X144338571Y-92824819D02*
X144243333Y-92824819D01*
X144243333Y-92824819D02*
X144100476Y-92872438D01*
X144100476Y-92872438D02*
X144052857Y-92920057D01*
X143100476Y-93824819D02*
X143671904Y-93824819D01*
X143386190Y-93824819D02*
X143386190Y-92824819D01*
X143386190Y-92824819D02*
X143481428Y-92967676D01*
X143481428Y-92967676D02*
X143576666Y-93062914D01*
X143576666Y-93062914D02*
X143671904Y-93110533D01*
X142767142Y-92824819D02*
X142148095Y-92824819D01*
X142148095Y-92824819D02*
X142481428Y-93205771D01*
X142481428Y-93205771D02*
X142338571Y-93205771D01*
X142338571Y-93205771D02*
X142243333Y-93253390D01*
X142243333Y-93253390D02*
X142195714Y-93301009D01*
X142195714Y-93301009D02*
X142148095Y-93396247D01*
X142148095Y-93396247D02*
X142148095Y-93634342D01*
X142148095Y-93634342D02*
X142195714Y-93729580D01*
X142195714Y-93729580D02*
X142243333Y-93777200D01*
X142243333Y-93777200D02*
X142338571Y-93824819D01*
X142338571Y-93824819D02*
X142624285Y-93824819D01*
X142624285Y-93824819D02*
X142719523Y-93777200D01*
X142719523Y-93777200D02*
X142767142Y-93729580D01*
X132126666Y-93409580D02*
X132174285Y-93457200D01*
X132174285Y-93457200D02*
X132317142Y-93504819D01*
X132317142Y-93504819D02*
X132412380Y-93504819D01*
X132412380Y-93504819D02*
X132555237Y-93457200D01*
X132555237Y-93457200D02*
X132650475Y-93361961D01*
X132650475Y-93361961D02*
X132698094Y-93266723D01*
X132698094Y-93266723D02*
X132745713Y-93076247D01*
X132745713Y-93076247D02*
X132745713Y-92933390D01*
X132745713Y-92933390D02*
X132698094Y-92742914D01*
X132698094Y-92742914D02*
X132650475Y-92647676D01*
X132650475Y-92647676D02*
X132555237Y-92552438D01*
X132555237Y-92552438D02*
X132412380Y-92504819D01*
X132412380Y-92504819D02*
X132317142Y-92504819D01*
X132317142Y-92504819D02*
X132174285Y-92552438D01*
X132174285Y-92552438D02*
X132126666Y-92600057D01*
X131221904Y-92504819D02*
X131698094Y-92504819D01*
X131698094Y-92504819D02*
X131745713Y-92981009D01*
X131745713Y-92981009D02*
X131698094Y-92933390D01*
X131698094Y-92933390D02*
X131602856Y-92885771D01*
X131602856Y-92885771D02*
X131364761Y-92885771D01*
X131364761Y-92885771D02*
X131269523Y-92933390D01*
X131269523Y-92933390D02*
X131221904Y-92981009D01*
X131221904Y-92981009D02*
X131174285Y-93076247D01*
X131174285Y-93076247D02*
X131174285Y-93314342D01*
X131174285Y-93314342D02*
X131221904Y-93409580D01*
X131221904Y-93409580D02*
X131269523Y-93457200D01*
X131269523Y-93457200D02*
X131364761Y-93504819D01*
X131364761Y-93504819D02*
X131602856Y-93504819D01*
X131602856Y-93504819D02*
X131698094Y-93457200D01*
X131698094Y-93457200D02*
X131745713Y-93409580D01*
X185519580Y-106367142D02*
X185567200Y-106319523D01*
X185567200Y-106319523D02*
X185614819Y-106176666D01*
X185614819Y-106176666D02*
X185614819Y-106081428D01*
X185614819Y-106081428D02*
X185567200Y-105938571D01*
X185567200Y-105938571D02*
X185471961Y-105843333D01*
X185471961Y-105843333D02*
X185376723Y-105795714D01*
X185376723Y-105795714D02*
X185186247Y-105748095D01*
X185186247Y-105748095D02*
X185043390Y-105748095D01*
X185043390Y-105748095D02*
X184852914Y-105795714D01*
X184852914Y-105795714D02*
X184757676Y-105843333D01*
X184757676Y-105843333D02*
X184662438Y-105938571D01*
X184662438Y-105938571D02*
X184614819Y-106081428D01*
X184614819Y-106081428D02*
X184614819Y-106176666D01*
X184614819Y-106176666D02*
X184662438Y-106319523D01*
X184662438Y-106319523D02*
X184710057Y-106367142D01*
X184710057Y-106748095D02*
X184662438Y-106795714D01*
X184662438Y-106795714D02*
X184614819Y-106890952D01*
X184614819Y-106890952D02*
X184614819Y-107129047D01*
X184614819Y-107129047D02*
X184662438Y-107224285D01*
X184662438Y-107224285D02*
X184710057Y-107271904D01*
X184710057Y-107271904D02*
X184805295Y-107319523D01*
X184805295Y-107319523D02*
X184900533Y-107319523D01*
X184900533Y-107319523D02*
X185043390Y-107271904D01*
X185043390Y-107271904D02*
X185614819Y-106700476D01*
X185614819Y-106700476D02*
X185614819Y-107319523D01*
X185614819Y-107795714D02*
X185614819Y-107986190D01*
X185614819Y-107986190D02*
X185567200Y-108081428D01*
X185567200Y-108081428D02*
X185519580Y-108129047D01*
X185519580Y-108129047D02*
X185376723Y-108224285D01*
X185376723Y-108224285D02*
X185186247Y-108271904D01*
X185186247Y-108271904D02*
X184805295Y-108271904D01*
X184805295Y-108271904D02*
X184710057Y-108224285D01*
X184710057Y-108224285D02*
X184662438Y-108176666D01*
X184662438Y-108176666D02*
X184614819Y-108081428D01*
X184614819Y-108081428D02*
X184614819Y-107890952D01*
X184614819Y-107890952D02*
X184662438Y-107795714D01*
X184662438Y-107795714D02*
X184710057Y-107748095D01*
X184710057Y-107748095D02*
X184805295Y-107700476D01*
X184805295Y-107700476D02*
X185043390Y-107700476D01*
X185043390Y-107700476D02*
X185138628Y-107748095D01*
X185138628Y-107748095D02*
X185186247Y-107795714D01*
X185186247Y-107795714D02*
X185233866Y-107890952D01*
X185233866Y-107890952D02*
X185233866Y-108081428D01*
X185233866Y-108081428D02*
X185186247Y-108176666D01*
X185186247Y-108176666D02*
X185138628Y-108224285D01*
X185138628Y-108224285D02*
X185043390Y-108271904D01*
X132966666Y-89459580D02*
X133014285Y-89507200D01*
X133014285Y-89507200D02*
X133157142Y-89554819D01*
X133157142Y-89554819D02*
X133252380Y-89554819D01*
X133252380Y-89554819D02*
X133395237Y-89507200D01*
X133395237Y-89507200D02*
X133490475Y-89411961D01*
X133490475Y-89411961D02*
X133538094Y-89316723D01*
X133538094Y-89316723D02*
X133585713Y-89126247D01*
X133585713Y-89126247D02*
X133585713Y-88983390D01*
X133585713Y-88983390D02*
X133538094Y-88792914D01*
X133538094Y-88792914D02*
X133490475Y-88697676D01*
X133490475Y-88697676D02*
X133395237Y-88602438D01*
X133395237Y-88602438D02*
X133252380Y-88554819D01*
X133252380Y-88554819D02*
X133157142Y-88554819D01*
X133157142Y-88554819D02*
X133014285Y-88602438D01*
X133014285Y-88602438D02*
X132966666Y-88650057D01*
X132633332Y-88554819D02*
X132014285Y-88554819D01*
X132014285Y-88554819D02*
X132347618Y-88935771D01*
X132347618Y-88935771D02*
X132204761Y-88935771D01*
X132204761Y-88935771D02*
X132109523Y-88983390D01*
X132109523Y-88983390D02*
X132061904Y-89031009D01*
X132061904Y-89031009D02*
X132014285Y-89126247D01*
X132014285Y-89126247D02*
X132014285Y-89364342D01*
X132014285Y-89364342D02*
X132061904Y-89459580D01*
X132061904Y-89459580D02*
X132109523Y-89507200D01*
X132109523Y-89507200D02*
X132204761Y-89554819D01*
X132204761Y-89554819D02*
X132490475Y-89554819D01*
X132490475Y-89554819D02*
X132585713Y-89507200D01*
X132585713Y-89507200D02*
X132633332Y-89459580D01*
X146096666Y-88719580D02*
X146144285Y-88767200D01*
X146144285Y-88767200D02*
X146287142Y-88814819D01*
X146287142Y-88814819D02*
X146382380Y-88814819D01*
X146382380Y-88814819D02*
X146525237Y-88767200D01*
X146525237Y-88767200D02*
X146620475Y-88671961D01*
X146620475Y-88671961D02*
X146668094Y-88576723D01*
X146668094Y-88576723D02*
X146715713Y-88386247D01*
X146715713Y-88386247D02*
X146715713Y-88243390D01*
X146715713Y-88243390D02*
X146668094Y-88052914D01*
X146668094Y-88052914D02*
X146620475Y-87957676D01*
X146620475Y-87957676D02*
X146525237Y-87862438D01*
X146525237Y-87862438D02*
X146382380Y-87814819D01*
X146382380Y-87814819D02*
X146287142Y-87814819D01*
X146287142Y-87814819D02*
X146144285Y-87862438D01*
X146144285Y-87862438D02*
X146096666Y-87910057D01*
X145525237Y-88243390D02*
X145620475Y-88195771D01*
X145620475Y-88195771D02*
X145668094Y-88148152D01*
X145668094Y-88148152D02*
X145715713Y-88052914D01*
X145715713Y-88052914D02*
X145715713Y-88005295D01*
X145715713Y-88005295D02*
X145668094Y-87910057D01*
X145668094Y-87910057D02*
X145620475Y-87862438D01*
X145620475Y-87862438D02*
X145525237Y-87814819D01*
X145525237Y-87814819D02*
X145334761Y-87814819D01*
X145334761Y-87814819D02*
X145239523Y-87862438D01*
X145239523Y-87862438D02*
X145191904Y-87910057D01*
X145191904Y-87910057D02*
X145144285Y-88005295D01*
X145144285Y-88005295D02*
X145144285Y-88052914D01*
X145144285Y-88052914D02*
X145191904Y-88148152D01*
X145191904Y-88148152D02*
X145239523Y-88195771D01*
X145239523Y-88195771D02*
X145334761Y-88243390D01*
X145334761Y-88243390D02*
X145525237Y-88243390D01*
X145525237Y-88243390D02*
X145620475Y-88291009D01*
X145620475Y-88291009D02*
X145668094Y-88338628D01*
X145668094Y-88338628D02*
X145715713Y-88433866D01*
X145715713Y-88433866D02*
X145715713Y-88624342D01*
X145715713Y-88624342D02*
X145668094Y-88719580D01*
X145668094Y-88719580D02*
X145620475Y-88767200D01*
X145620475Y-88767200D02*
X145525237Y-88814819D01*
X145525237Y-88814819D02*
X145334761Y-88814819D01*
X145334761Y-88814819D02*
X145239523Y-88767200D01*
X145239523Y-88767200D02*
X145191904Y-88719580D01*
X145191904Y-88719580D02*
X145144285Y-88624342D01*
X145144285Y-88624342D02*
X145144285Y-88433866D01*
X145144285Y-88433866D02*
X145191904Y-88338628D01*
X145191904Y-88338628D02*
X145239523Y-88291009D01*
X145239523Y-88291009D02*
X145334761Y-88243390D01*
X131656666Y-97359580D02*
X131704285Y-97407200D01*
X131704285Y-97407200D02*
X131847142Y-97454819D01*
X131847142Y-97454819D02*
X131942380Y-97454819D01*
X131942380Y-97454819D02*
X132085237Y-97407200D01*
X132085237Y-97407200D02*
X132180475Y-97311961D01*
X132180475Y-97311961D02*
X132228094Y-97216723D01*
X132228094Y-97216723D02*
X132275713Y-97026247D01*
X132275713Y-97026247D02*
X132275713Y-96883390D01*
X132275713Y-96883390D02*
X132228094Y-96692914D01*
X132228094Y-96692914D02*
X132180475Y-96597676D01*
X132180475Y-96597676D02*
X132085237Y-96502438D01*
X132085237Y-96502438D02*
X131942380Y-96454819D01*
X131942380Y-96454819D02*
X131847142Y-96454819D01*
X131847142Y-96454819D02*
X131704285Y-96502438D01*
X131704285Y-96502438D02*
X131656666Y-96550057D01*
X131323332Y-96454819D02*
X130656666Y-96454819D01*
X130656666Y-96454819D02*
X131085237Y-97454819D01*
X139559580Y-81893333D02*
X139607200Y-81845714D01*
X139607200Y-81845714D02*
X139654819Y-81702857D01*
X139654819Y-81702857D02*
X139654819Y-81607619D01*
X139654819Y-81607619D02*
X139607200Y-81464762D01*
X139607200Y-81464762D02*
X139511961Y-81369524D01*
X139511961Y-81369524D02*
X139416723Y-81321905D01*
X139416723Y-81321905D02*
X139226247Y-81274286D01*
X139226247Y-81274286D02*
X139083390Y-81274286D01*
X139083390Y-81274286D02*
X138892914Y-81321905D01*
X138892914Y-81321905D02*
X138797676Y-81369524D01*
X138797676Y-81369524D02*
X138702438Y-81464762D01*
X138702438Y-81464762D02*
X138654819Y-81607619D01*
X138654819Y-81607619D02*
X138654819Y-81702857D01*
X138654819Y-81702857D02*
X138702438Y-81845714D01*
X138702438Y-81845714D02*
X138750057Y-81893333D01*
X138988152Y-82750476D02*
X139654819Y-82750476D01*
X138607200Y-82512381D02*
X139321485Y-82274286D01*
X139321485Y-82274286D02*
X139321485Y-82893333D01*
X140489580Y-95157142D02*
X140537200Y-95109523D01*
X140537200Y-95109523D02*
X140584819Y-94966666D01*
X140584819Y-94966666D02*
X140584819Y-94871428D01*
X140584819Y-94871428D02*
X140537200Y-94728571D01*
X140537200Y-94728571D02*
X140441961Y-94633333D01*
X140441961Y-94633333D02*
X140346723Y-94585714D01*
X140346723Y-94585714D02*
X140156247Y-94538095D01*
X140156247Y-94538095D02*
X140013390Y-94538095D01*
X140013390Y-94538095D02*
X139822914Y-94585714D01*
X139822914Y-94585714D02*
X139727676Y-94633333D01*
X139727676Y-94633333D02*
X139632438Y-94728571D01*
X139632438Y-94728571D02*
X139584819Y-94871428D01*
X139584819Y-94871428D02*
X139584819Y-94966666D01*
X139584819Y-94966666D02*
X139632438Y-95109523D01*
X139632438Y-95109523D02*
X139680057Y-95157142D01*
X140584819Y-96109523D02*
X140584819Y-95538095D01*
X140584819Y-95823809D02*
X139584819Y-95823809D01*
X139584819Y-95823809D02*
X139727676Y-95728571D01*
X139727676Y-95728571D02*
X139822914Y-95633333D01*
X139822914Y-95633333D02*
X139870533Y-95538095D01*
X139584819Y-96728571D02*
X139584819Y-96823809D01*
X139584819Y-96823809D02*
X139632438Y-96919047D01*
X139632438Y-96919047D02*
X139680057Y-96966666D01*
X139680057Y-96966666D02*
X139775295Y-97014285D01*
X139775295Y-97014285D02*
X139965771Y-97061904D01*
X139965771Y-97061904D02*
X140203866Y-97061904D01*
X140203866Y-97061904D02*
X140394342Y-97014285D01*
X140394342Y-97014285D02*
X140489580Y-96966666D01*
X140489580Y-96966666D02*
X140537200Y-96919047D01*
X140537200Y-96919047D02*
X140584819Y-96823809D01*
X140584819Y-96823809D02*
X140584819Y-96728571D01*
X140584819Y-96728571D02*
X140537200Y-96633333D01*
X140537200Y-96633333D02*
X140489580Y-96585714D01*
X140489580Y-96585714D02*
X140394342Y-96538095D01*
X140394342Y-96538095D02*
X140203866Y-96490476D01*
X140203866Y-96490476D02*
X139965771Y-96490476D01*
X139965771Y-96490476D02*
X139775295Y-96538095D01*
X139775295Y-96538095D02*
X139680057Y-96585714D01*
X139680057Y-96585714D02*
X139632438Y-96633333D01*
X139632438Y-96633333D02*
X139584819Y-96728571D01*
X144599580Y-82827142D02*
X144647200Y-82779523D01*
X144647200Y-82779523D02*
X144694819Y-82636666D01*
X144694819Y-82636666D02*
X144694819Y-82541428D01*
X144694819Y-82541428D02*
X144647200Y-82398571D01*
X144647200Y-82398571D02*
X144551961Y-82303333D01*
X144551961Y-82303333D02*
X144456723Y-82255714D01*
X144456723Y-82255714D02*
X144266247Y-82208095D01*
X144266247Y-82208095D02*
X144123390Y-82208095D01*
X144123390Y-82208095D02*
X143932914Y-82255714D01*
X143932914Y-82255714D02*
X143837676Y-82303333D01*
X143837676Y-82303333D02*
X143742438Y-82398571D01*
X143742438Y-82398571D02*
X143694819Y-82541428D01*
X143694819Y-82541428D02*
X143694819Y-82636666D01*
X143694819Y-82636666D02*
X143742438Y-82779523D01*
X143742438Y-82779523D02*
X143790057Y-82827142D01*
X143694819Y-83160476D02*
X143694819Y-83779523D01*
X143694819Y-83779523D02*
X144075771Y-83446190D01*
X144075771Y-83446190D02*
X144075771Y-83589047D01*
X144075771Y-83589047D02*
X144123390Y-83684285D01*
X144123390Y-83684285D02*
X144171009Y-83731904D01*
X144171009Y-83731904D02*
X144266247Y-83779523D01*
X144266247Y-83779523D02*
X144504342Y-83779523D01*
X144504342Y-83779523D02*
X144599580Y-83731904D01*
X144599580Y-83731904D02*
X144647200Y-83684285D01*
X144647200Y-83684285D02*
X144694819Y-83589047D01*
X144694819Y-83589047D02*
X144694819Y-83303333D01*
X144694819Y-83303333D02*
X144647200Y-83208095D01*
X144647200Y-83208095D02*
X144599580Y-83160476D01*
X143694819Y-84636666D02*
X143694819Y-84446190D01*
X143694819Y-84446190D02*
X143742438Y-84350952D01*
X143742438Y-84350952D02*
X143790057Y-84303333D01*
X143790057Y-84303333D02*
X143932914Y-84208095D01*
X143932914Y-84208095D02*
X144123390Y-84160476D01*
X144123390Y-84160476D02*
X144504342Y-84160476D01*
X144504342Y-84160476D02*
X144599580Y-84208095D01*
X144599580Y-84208095D02*
X144647200Y-84255714D01*
X144647200Y-84255714D02*
X144694819Y-84350952D01*
X144694819Y-84350952D02*
X144694819Y-84541428D01*
X144694819Y-84541428D02*
X144647200Y-84636666D01*
X144647200Y-84636666D02*
X144599580Y-84684285D01*
X144599580Y-84684285D02*
X144504342Y-84731904D01*
X144504342Y-84731904D02*
X144266247Y-84731904D01*
X144266247Y-84731904D02*
X144171009Y-84684285D01*
X144171009Y-84684285D02*
X144123390Y-84636666D01*
X144123390Y-84636666D02*
X144075771Y-84541428D01*
X144075771Y-84541428D02*
X144075771Y-84350952D01*
X144075771Y-84350952D02*
X144123390Y-84255714D01*
X144123390Y-84255714D02*
X144171009Y-84208095D01*
X144171009Y-84208095D02*
X144266247Y-84160476D01*
X180063247Y-102408094D02*
X180063247Y-102621428D01*
X180482295Y-102712856D02*
X180482295Y-102408094D01*
X180482295Y-102408094D02*
X179682295Y-102408094D01*
X179682295Y-102408094D02*
X179682295Y-102712856D01*
X180482295Y-103322381D02*
X180482295Y-102956666D01*
X180482295Y-103139523D02*
X179682295Y-103139523D01*
X179682295Y-103139523D02*
X179796580Y-103078571D01*
X179796580Y-103078571D02*
X179872771Y-103017619D01*
X179872771Y-103017619D02*
X179910866Y-102956666D01*
X141169580Y-81793333D02*
X141217200Y-81745714D01*
X141217200Y-81745714D02*
X141264819Y-81602857D01*
X141264819Y-81602857D02*
X141264819Y-81507619D01*
X141264819Y-81507619D02*
X141217200Y-81364762D01*
X141217200Y-81364762D02*
X141121961Y-81269524D01*
X141121961Y-81269524D02*
X141026723Y-81221905D01*
X141026723Y-81221905D02*
X140836247Y-81174286D01*
X140836247Y-81174286D02*
X140693390Y-81174286D01*
X140693390Y-81174286D02*
X140502914Y-81221905D01*
X140502914Y-81221905D02*
X140407676Y-81269524D01*
X140407676Y-81269524D02*
X140312438Y-81364762D01*
X140312438Y-81364762D02*
X140264819Y-81507619D01*
X140264819Y-81507619D02*
X140264819Y-81602857D01*
X140264819Y-81602857D02*
X140312438Y-81745714D01*
X140312438Y-81745714D02*
X140360057Y-81793333D01*
X140360057Y-82174286D02*
X140312438Y-82221905D01*
X140312438Y-82221905D02*
X140264819Y-82317143D01*
X140264819Y-82317143D02*
X140264819Y-82555238D01*
X140264819Y-82555238D02*
X140312438Y-82650476D01*
X140312438Y-82650476D02*
X140360057Y-82698095D01*
X140360057Y-82698095D02*
X140455295Y-82745714D01*
X140455295Y-82745714D02*
X140550533Y-82745714D01*
X140550533Y-82745714D02*
X140693390Y-82698095D01*
X140693390Y-82698095D02*
X141264819Y-82126667D01*
X141264819Y-82126667D02*
X141264819Y-82745714D01*
X147242857Y-78829580D02*
X147290476Y-78877200D01*
X147290476Y-78877200D02*
X147433333Y-78924819D01*
X147433333Y-78924819D02*
X147528571Y-78924819D01*
X147528571Y-78924819D02*
X147671428Y-78877200D01*
X147671428Y-78877200D02*
X147766666Y-78781961D01*
X147766666Y-78781961D02*
X147814285Y-78686723D01*
X147814285Y-78686723D02*
X147861904Y-78496247D01*
X147861904Y-78496247D02*
X147861904Y-78353390D01*
X147861904Y-78353390D02*
X147814285Y-78162914D01*
X147814285Y-78162914D02*
X147766666Y-78067676D01*
X147766666Y-78067676D02*
X147671428Y-77972438D01*
X147671428Y-77972438D02*
X147528571Y-77924819D01*
X147528571Y-77924819D02*
X147433333Y-77924819D01*
X147433333Y-77924819D02*
X147290476Y-77972438D01*
X147290476Y-77972438D02*
X147242857Y-78020057D01*
X146861904Y-78020057D02*
X146814285Y-77972438D01*
X146814285Y-77972438D02*
X146719047Y-77924819D01*
X146719047Y-77924819D02*
X146480952Y-77924819D01*
X146480952Y-77924819D02*
X146385714Y-77972438D01*
X146385714Y-77972438D02*
X146338095Y-78020057D01*
X146338095Y-78020057D02*
X146290476Y-78115295D01*
X146290476Y-78115295D02*
X146290476Y-78210533D01*
X146290476Y-78210533D02*
X146338095Y-78353390D01*
X146338095Y-78353390D02*
X146909523Y-78924819D01*
X146909523Y-78924819D02*
X146290476Y-78924819D01*
X145909523Y-78020057D02*
X145861904Y-77972438D01*
X145861904Y-77972438D02*
X145766666Y-77924819D01*
X145766666Y-77924819D02*
X145528571Y-77924819D01*
X145528571Y-77924819D02*
X145433333Y-77972438D01*
X145433333Y-77972438D02*
X145385714Y-78020057D01*
X145385714Y-78020057D02*
X145338095Y-78115295D01*
X145338095Y-78115295D02*
X145338095Y-78210533D01*
X145338095Y-78210533D02*
X145385714Y-78353390D01*
X145385714Y-78353390D02*
X145957142Y-78924819D01*
X145957142Y-78924819D02*
X145338095Y-78924819D01*
D11*
%TO.C,C28*%
X187485000Y-104011252D02*
X187485000Y-103488748D01*
X188955000Y-104011252D02*
X188955000Y-103488748D01*
%TO.C,C15*%
X146511252Y-98335000D02*
X145988748Y-98335000D01*
X146511252Y-96865000D02*
X145988748Y-96865000D01*
%TO.C,C1*%
X132538748Y-81915000D02*
X133061252Y-81915000D01*
X132538748Y-83385000D02*
X133061252Y-83385000D01*
%TO.C,C18*%
X146861252Y-92885000D02*
X146338748Y-92885000D01*
X146861252Y-91415000D02*
X146338748Y-91415000D01*
%TO.C,C6*%
X132938748Y-79515000D02*
X133461252Y-79515000D01*
X132938748Y-80985000D02*
X133461252Y-80985000D01*
%TO.C,C13*%
X142715000Y-96061252D02*
X142715000Y-95538748D01*
X144185000Y-96061252D02*
X144185000Y-95538748D01*
%TO.C,C5*%
X132538748Y-93915000D02*
X133061252Y-93915000D01*
X132538748Y-95385000D02*
X133061252Y-95385000D01*
%TO.C,C29*%
X185425000Y-104021252D02*
X185425000Y-103498748D01*
X186895000Y-104021252D02*
X186895000Y-103498748D01*
%TO.C,C3*%
X132538748Y-86685000D02*
X133061252Y-86685000D01*
X132538748Y-88155000D02*
X133061252Y-88155000D01*
%TO.C,C8*%
X146861252Y-87385000D02*
X146338748Y-87385000D01*
X146861252Y-85915000D02*
X146338748Y-85915000D01*
%TO.C,C7*%
X133938748Y-96915000D02*
X134461252Y-96915000D01*
X133938748Y-98385000D02*
X134461252Y-98385000D01*
%TO.C,C4*%
X138185000Y-81688748D02*
X138185000Y-82211252D01*
X136715000Y-81688748D02*
X136715000Y-82211252D01*
%TO.C,C10*%
X137715000Y-96061252D02*
X137715000Y-95538748D01*
X139185000Y-96061252D02*
X139185000Y-95538748D01*
%TO.C,R1*%
X132215000Y-74807064D02*
X132215000Y-74352936D01*
X133685000Y-74807064D02*
X133685000Y-74352936D01*
%TO.C,C38*%
X130261252Y-75835000D02*
X129738748Y-75835000D01*
X130261252Y-74365000D02*
X129738748Y-74365000D01*
%TO.C,C36*%
X146338748Y-82915000D02*
X146861252Y-82915000D01*
X146338748Y-84385000D02*
X146861252Y-84385000D01*
D12*
%TO.C,E1*%
X180930000Y-106400000D02*
X180930000Y-102900000D01*
X183930000Y-106400000D02*
X183930000Y-102900000D01*
D13*
X182530000Y-107507500D02*
G75*
G03*
X182330000Y-107507500I-100000J0D01*
G01*
X182330000Y-107507500D02*
G75*
G03*
X182530000Y-107507500I100000J0D01*
G01*
D11*
%TO.C,C2*%
X143185000Y-81688748D02*
X143185000Y-82211252D01*
X141715000Y-81688748D02*
X141715000Y-82211252D01*
%TO.C,C22*%
X146861252Y-80885000D02*
X146338748Y-80885000D01*
X146861252Y-79415000D02*
X146338748Y-79415000D01*
%TD*%
M02*
