%TF.GenerationSoftware,KiCad,Pcbnew,7.0.10*%
%TF.CreationDate,2024-03-07T22:41:58-05:00*%
%TF.ProjectId,Current,43757272-656e-4742-9e6b-696361645f70,rev?*%
%TF.SameCoordinates,Original*%
%TF.FileFunction,Soldermask,Bot*%
%TF.FilePolarity,Negative*%
%FSLAX46Y46*%
G04 Gerber Fmt 4.6, Leading zero omitted, Abs format (unit mm)*
G04 Created by KiCad (PCBNEW 7.0.10) date 2024-03-07 22:41:58*
%MOMM*%
%LPD*%
G01*
G04 APERTURE LIST*
G04 Aperture macros list*
%AMRoundRect*
0 Rectangle with rounded corners*
0 $1 Rounding radius*
0 $2 $3 $4 $5 $6 $7 $8 $9 X,Y pos of 4 corners*
0 Add a 4 corners polygon primitive as box body*
4,1,4,$2,$3,$4,$5,$6,$7,$8,$9,$2,$3,0*
0 Add four circle primitives for the rounded corners*
1,1,$1+$1,$2,$3*
1,1,$1+$1,$4,$5*
1,1,$1+$1,$6,$7*
1,1,$1+$1,$8,$9*
0 Add four rect primitives between the rounded corners*
20,1,$1+$1,$2,$3,$4,$5,0*
20,1,$1+$1,$4,$5,$6,$7,0*
20,1,$1+$1,$6,$7,$8,$9,0*
20,1,$1+$1,$8,$9,$2,$3,0*%
G04 Aperture macros list end*
%ADD10C,1.850000*%
%ADD11RoundRect,0.102000X-0.937500X0.937500X-0.937500X-0.937500X0.937500X-0.937500X0.937500X0.937500X0*%
%ADD12C,2.079000*%
%ADD13C,1.600000*%
%ADD14RoundRect,0.102000X0.825000X0.825000X-0.825000X0.825000X-0.825000X-0.825000X0.825000X-0.825000X0*%
%ADD15C,1.854000*%
%ADD16O,3.204000X6.204000*%
%ADD17C,4.500000*%
%ADD18O,1.104000X2.004000*%
%ADD19RoundRect,0.102000X-0.937500X-0.937500X0.937500X-0.937500X0.937500X0.937500X-0.937500X0.937500X0*%
%ADD20R,1.700000X1.700000*%
%ADD21O,1.700000X1.700000*%
%ADD22RoundRect,0.250000X0.475000X-0.250000X0.475000X0.250000X-0.475000X0.250000X-0.475000X-0.250000X0*%
%ADD23RoundRect,0.250000X0.250000X0.475000X-0.250000X0.475000X-0.250000X-0.475000X0.250000X-0.475000X0*%
%ADD24RoundRect,0.250000X-0.250000X-0.475000X0.250000X-0.475000X0.250000X0.475000X-0.250000X0.475000X0*%
%ADD25RoundRect,0.250000X-0.475000X0.250000X-0.475000X-0.250000X0.475000X-0.250000X0.475000X0.250000X0*%
%ADD26RoundRect,0.250000X0.450000X-0.262500X0.450000X0.262500X-0.450000X0.262500X-0.450000X-0.262500X0*%
%ADD27RoundRect,0.102000X1.160000X-0.905000X1.160000X0.905000X-1.160000X0.905000X-1.160000X-0.905000X0*%
G04 APERTURE END LIST*
D10*
%TO.C,SW3*%
X144700000Y-134300000D03*
X135700000Y-134300000D03*
D11*
X142700000Y-128050000D03*
D12*
X142700000Y-140550000D03*
X137700000Y-128050000D03*
X137700000Y-140550000D03*
%TD*%
D13*
%TO.C,J2*%
X204520000Y-52360000D03*
X204520000Y-58360000D03*
%TD*%
D14*
%TO.C,SW5*%
X185700000Y-141300000D03*
D15*
X180700000Y-141300000D03*
X185700000Y-126800000D03*
X180700000Y-126800000D03*
X183200000Y-126800000D03*
D16*
X188900000Y-134300000D03*
X177500000Y-134300000D03*
%TD*%
D17*
%TO.C,H4*%
X100800000Y-54525000D03*
%TD*%
D14*
%TO.C,SW4*%
X164200000Y-141302500D03*
D15*
X159200000Y-141302500D03*
X164200000Y-126802500D03*
X159200000Y-126802500D03*
X161700000Y-126802500D03*
D16*
X167400000Y-134302500D03*
X156000000Y-134302500D03*
%TD*%
D18*
%TO.C,J1*%
X124300000Y-50720500D03*
X117700000Y-50720500D03*
%TD*%
D13*
%TO.C,J3*%
X184320000Y-52387500D03*
X184320000Y-58387500D03*
%TD*%
D17*
%TO.C,H2*%
X219750000Y-54475000D03*
%TD*%
%TO.C,H1*%
X219750000Y-138500000D03*
%TD*%
D10*
%TO.C,SW2*%
X123200000Y-134300000D03*
X114200000Y-134300000D03*
D11*
X121200000Y-128050000D03*
D12*
X121200000Y-140550000D03*
X116200000Y-128050000D03*
X116200000Y-140550000D03*
%TD*%
D13*
%TO.C,J4*%
X163890000Y-52387500D03*
X163890000Y-58387500D03*
%TD*%
D14*
%TO.C,SW6*%
X207200000Y-141300000D03*
D15*
X202200000Y-141300000D03*
X207200000Y-126800000D03*
X202200000Y-126800000D03*
X204700000Y-126800000D03*
D16*
X210400000Y-134300000D03*
X199000000Y-134300000D03*
%TD*%
D10*
%TO.C,SW1*%
X106562500Y-84590000D03*
X106562500Y-93590000D03*
D19*
X100312500Y-86590000D03*
D12*
X112812500Y-86590000D03*
X100312500Y-91590000D03*
X112812500Y-91590000D03*
%TD*%
D20*
%TO.C,J7*%
X149060000Y-116000000D03*
D21*
X146520000Y-116000000D03*
X143980000Y-116000000D03*
%TD*%
D17*
%TO.C,H3*%
X101019581Y-138180419D03*
%TD*%
D20*
%TO.C,J6*%
X169630000Y-99670000D03*
D21*
X169630000Y-97130000D03*
X169630000Y-94590000D03*
X169630000Y-92050000D03*
X169630000Y-89510000D03*
X169630000Y-86970000D03*
%TD*%
D22*
%TO.C,C28*%
X188220000Y-104700000D03*
X188220000Y-102800000D03*
%TD*%
D23*
%TO.C,C15*%
X147200000Y-97600000D03*
X145300000Y-97600000D03*
%TD*%
D24*
%TO.C,C1*%
X131850000Y-82650000D03*
X133750000Y-82650000D03*
%TD*%
D23*
%TO.C,C18*%
X147550000Y-92150000D03*
X145650000Y-92150000D03*
%TD*%
D24*
%TO.C,C6*%
X132250000Y-80250000D03*
X134150000Y-80250000D03*
%TD*%
D22*
%TO.C,C13*%
X143450000Y-96750000D03*
X143450000Y-94850000D03*
%TD*%
D24*
%TO.C,C5*%
X131850000Y-94650000D03*
X133750000Y-94650000D03*
%TD*%
D22*
%TO.C,C29*%
X186160000Y-104710000D03*
X186160000Y-102810000D03*
%TD*%
D24*
%TO.C,C3*%
X131850000Y-87420000D03*
X133750000Y-87420000D03*
%TD*%
D23*
%TO.C,C8*%
X147550000Y-86650000D03*
X145650000Y-86650000D03*
%TD*%
D24*
%TO.C,C7*%
X133250000Y-97650000D03*
X135150000Y-97650000D03*
%TD*%
D25*
%TO.C,C4*%
X137450000Y-81000000D03*
X137450000Y-82900000D03*
%TD*%
D22*
%TO.C,C10*%
X138450000Y-96750000D03*
X138450000Y-94850000D03*
%TD*%
D26*
%TO.C,R1*%
X132950000Y-75492500D03*
X132950000Y-73667500D03*
%TD*%
D23*
%TO.C,C38*%
X130950000Y-75100000D03*
X129050000Y-75100000D03*
%TD*%
D24*
%TO.C,C36*%
X145650000Y-83650000D03*
X147550000Y-83650000D03*
%TD*%
D27*
%TO.C,E1*%
X182430000Y-106100000D03*
X182430000Y-103200000D03*
%TD*%
D25*
%TO.C,C2*%
X142450000Y-81000000D03*
X142450000Y-82900000D03*
%TD*%
D23*
%TO.C,C22*%
X147550000Y-80150000D03*
X145650000Y-80150000D03*
%TD*%
M02*
