%TF.GenerationSoftware,KiCad,Pcbnew,7.0.10*%
%TF.CreationDate,2024-03-07T22:41:58-05:00*%
%TF.ProjectId,Current,43757272-656e-4742-9e6b-696361645f70,rev?*%
%TF.SameCoordinates,Original*%
%TF.FileFunction,Soldermask,Top*%
%TF.FilePolarity,Negative*%
%FSLAX46Y46*%
G04 Gerber Fmt 4.6, Leading zero omitted, Abs format (unit mm)*
G04 Created by KiCad (PCBNEW 7.0.10) date 2024-03-07 22:41:58*
%MOMM*%
%LPD*%
G01*
G04 APERTURE LIST*
G04 Aperture macros list*
%AMRoundRect*
0 Rectangle with rounded corners*
0 $1 Rounding radius*
0 $2 $3 $4 $5 $6 $7 $8 $9 X,Y pos of 4 corners*
0 Add a 4 corners polygon primitive as box body*
4,1,4,$2,$3,$4,$5,$6,$7,$8,$9,$2,$3,0*
0 Add four circle primitives for the rounded corners*
1,1,$1+$1,$2,$3*
1,1,$1+$1,$4,$5*
1,1,$1+$1,$6,$7*
1,1,$1+$1,$8,$9*
0 Add four rect primitives between the rounded corners*
20,1,$1+$1,$2,$3,$4,$5,0*
20,1,$1+$1,$4,$5,$6,$7,0*
20,1,$1+$1,$6,$7,$8,$9,0*
20,1,$1+$1,$8,$9,$2,$3,0*%
G04 Aperture macros list end*
%ADD10RoundRect,0.150000X0.150000X-0.725000X0.150000X0.725000X-0.150000X0.725000X-0.150000X-0.725000X0*%
%ADD11RoundRect,0.250000X-0.450000X0.262500X-0.450000X-0.262500X0.450000X-0.262500X0.450000X0.262500X0*%
%ADD12RoundRect,0.250000X0.262500X0.450000X-0.262500X0.450000X-0.262500X-0.450000X0.262500X-0.450000X0*%
%ADD13RoundRect,0.250000X0.450000X-0.262500X0.450000X0.262500X-0.450000X0.262500X-0.450000X-0.262500X0*%
%ADD14C,1.850000*%
%ADD15RoundRect,0.102000X-0.937500X0.937500X-0.937500X-0.937500X0.937500X-0.937500X0.937500X0.937500X0*%
%ADD16C,2.079000*%
%ADD17RoundRect,0.102000X0.800000X-1.600000X0.800000X1.600000X-0.800000X1.600000X-0.800000X-1.600000X0*%
%ADD18RoundRect,0.243750X0.243750X0.456250X-0.243750X0.456250X-0.243750X-0.456250X0.243750X-0.456250X0*%
%ADD19RoundRect,0.250000X0.475000X-0.250000X0.475000X0.250000X-0.475000X0.250000X-0.475000X-0.250000X0*%
%ADD20RoundRect,0.250000X-0.475000X0.250000X-0.475000X-0.250000X0.475000X-0.250000X0.475000X0.250000X0*%
%ADD21RoundRect,0.243750X-0.243750X-0.456250X0.243750X-0.456250X0.243750X0.456250X-0.243750X0.456250X0*%
%ADD22C,1.600000*%
%ADD23RoundRect,0.102000X-1.350000X1.450000X-1.350000X-1.450000X1.350000X-1.450000X1.350000X1.450000X0*%
%ADD24RoundRect,0.102000X-1.350000X1.050000X-1.350000X-1.050000X1.350000X-1.050000X1.350000X1.050000X0*%
%ADD25RoundRect,0.102000X-1.350000X1.200000X-1.350000X-1.200000X1.350000X-1.200000X1.350000X1.200000X0*%
%ADD26RoundRect,0.102000X-1.350000X0.900000X-1.350000X-0.900000X1.350000X-0.900000X1.350000X0.900000X0*%
%ADD27RoundRect,0.102000X1.250000X0.800000X-1.250000X0.800000X-1.250000X-0.800000X1.250000X-0.800000X0*%
%ADD28RoundRect,0.102000X-1.000000X-1.100000X1.000000X-1.100000X1.000000X1.100000X-1.000000X1.100000X0*%
%ADD29RoundRect,0.250000X-0.262500X-0.450000X0.262500X-0.450000X0.262500X0.450000X-0.262500X0.450000X0*%
%ADD30RoundRect,0.102000X0.825000X0.825000X-0.825000X0.825000X-0.825000X-0.825000X0.825000X-0.825000X0*%
%ADD31C,1.854000*%
%ADD32O,3.204000X6.204000*%
%ADD33RoundRect,0.250000X0.250000X0.475000X-0.250000X0.475000X-0.250000X-0.475000X0.250000X-0.475000X0*%
%ADD34RoundRect,0.150000X-0.150000X0.725000X-0.150000X-0.725000X0.150000X-0.725000X0.150000X0.725000X0*%
%ADD35RoundRect,0.150000X0.725000X0.150000X-0.725000X0.150000X-0.725000X-0.150000X0.725000X-0.150000X0*%
%ADD36RoundRect,0.102000X1.600000X0.800000X-1.600000X0.800000X-1.600000X-0.800000X1.600000X-0.800000X0*%
%ADD37R,2.000000X1.500000*%
%ADD38R,2.000000X3.800000*%
%ADD39RoundRect,0.243750X-0.456250X0.243750X-0.456250X-0.243750X0.456250X-0.243750X0.456250X0.243750X0*%
%ADD40C,4.500000*%
%ADD41RoundRect,0.062500X-0.537500X-0.062500X0.537500X-0.062500X0.537500X0.062500X-0.537500X0.062500X0*%
%ADD42RoundRect,0.062500X-0.062500X-0.537500X0.062500X-0.537500X0.062500X0.537500X-0.062500X0.537500X0*%
%ADD43R,3.350000X3.350000*%
%ADD44RoundRect,0.102000X-0.485000X0.500000X-0.485000X-0.500000X0.485000X-0.500000X0.485000X0.500000X0*%
%ADD45RoundRect,0.102000X0.200000X0.725000X-0.200000X0.725000X-0.200000X-0.725000X0.200000X-0.725000X0*%
%ADD46RoundRect,0.102000X0.200000X0.675000X-0.200000X0.675000X-0.200000X-0.675000X0.200000X-0.675000X0*%
%ADD47RoundRect,0.102000X0.200000X0.750000X-0.200000X0.750000X-0.200000X-0.750000X0.200000X-0.750000X0*%
%ADD48RoundRect,0.102000X0.800000X0.700000X-0.800000X0.700000X-0.800000X-0.700000X0.800000X-0.700000X0*%
%ADD49RoundRect,0.102000X0.950000X0.950000X-0.950000X0.950000X-0.950000X-0.950000X0.950000X-0.950000X0*%
%ADD50O,1.104000X2.004000*%
%ADD51RoundRect,0.102000X1.400000X-1.300000X1.400000X1.300000X-1.400000X1.300000X-1.400000X-1.300000X0*%
%ADD52RoundRect,0.102000X0.750000X-2.750000X0.750000X2.750000X-0.750000X2.750000X-0.750000X-2.750000X0*%
%ADD53R,0.300000X1.000000*%
%ADD54R,0.300000X0.800000*%
%ADD55R,0.300000X1.200000*%
%ADD56R,1.300000X3.049999*%
%ADD57RoundRect,0.075000X-0.662500X-0.075000X0.662500X-0.075000X0.662500X0.075000X-0.662500X0.075000X0*%
%ADD58RoundRect,0.075000X-0.075000X-0.662500X0.075000X-0.662500X0.075000X0.662500X-0.075000X0.662500X0*%
%ADD59RoundRect,0.102000X1.160000X-0.905000X1.160000X0.905000X-1.160000X0.905000X-1.160000X-0.905000X0*%
%ADD60RoundRect,0.102000X-0.937500X-0.937500X0.937500X-0.937500X0.937500X0.937500X-0.937500X0.937500X0*%
%ADD61R,1.700000X1.700000*%
%ADD62O,1.700000X1.700000*%
G04 APERTURE END LIST*
%TO.C,J5*%
G36*
X133449992Y-54710000D02*
G01*
X132349992Y-54710000D01*
X132349992Y-52510000D01*
X133449992Y-52510000D01*
X133449992Y-54710000D01*
G37*
G36*
X148149992Y-54710000D02*
G01*
X147049992Y-54710000D01*
X147049992Y-52510000D01*
X148149992Y-52510000D01*
X148149992Y-54710000D01*
G37*
%TD*%
D10*
%TO.C,U5*%
X127395000Y-122275000D03*
X128665000Y-122275000D03*
X129935000Y-122275000D03*
X131205000Y-122275000D03*
X131205000Y-117125000D03*
X129935000Y-117125000D03*
X128665000Y-117125000D03*
X127395000Y-117125000D03*
%TD*%
D11*
%TO.C,R33*%
X178520000Y-65707500D03*
X178520000Y-67532500D03*
%TD*%
D12*
%TO.C,R13*%
X180787500Y-119980000D03*
X178962500Y-119980000D03*
%TD*%
%TO.C,R15*%
X202305000Y-120180000D03*
X200480000Y-120180000D03*
%TD*%
D13*
%TO.C,R22*%
X143040000Y-66912500D03*
X143040000Y-65087500D03*
%TD*%
D14*
%TO.C,SW3*%
X144700000Y-134300000D03*
X135700000Y-134300000D03*
D15*
X142700000Y-128050000D03*
D16*
X142700000Y-140550000D03*
X137700000Y-128050000D03*
X137700000Y-140550000D03*
%TD*%
D17*
%TO.C,E6*%
X198770000Y-72020000D03*
X198770000Y-67020000D03*
%TD*%
D18*
%TO.C,D2*%
X135327500Y-107770000D03*
X133452500Y-107770000D03*
%TD*%
D11*
%TO.C,R36*%
X175590000Y-58732500D03*
X175590000Y-60557500D03*
%TD*%
D13*
%TO.C,R37*%
X192840000Y-60470000D03*
X192840000Y-58645000D03*
%TD*%
D12*
%TO.C,R5*%
X208717500Y-123680000D03*
X206892500Y-123680000D03*
%TD*%
D19*
%TO.C,C24*%
X122200000Y-94500000D03*
X122200000Y-92600000D03*
%TD*%
D13*
%TO.C,R40*%
X131930000Y-63012500D03*
X131930000Y-61187500D03*
%TD*%
D12*
%TO.C,R28*%
X141962500Y-111100000D03*
X140137500Y-111100000D03*
%TD*%
D20*
%TO.C,C32*%
X166520000Y-66570000D03*
X166520000Y-68470000D03*
%TD*%
D21*
%TO.C,D7*%
X150552500Y-106560000D03*
X152427500Y-106560000D03*
%TD*%
D22*
%TO.C,J2*%
X204520000Y-52360000D03*
X204520000Y-58360000D03*
D23*
X209870000Y-52160000D03*
X199170000Y-58660000D03*
D24*
X209870000Y-58510000D03*
D25*
X199170000Y-54260000D03*
D26*
X209870000Y-55460000D03*
%TD*%
D27*
%TO.C,E2*%
X182060000Y-71850000D03*
X178560000Y-71850000D03*
%TD*%
D28*
%TO.C,L1*%
X194630000Y-107130000D03*
X200930000Y-107130000D03*
%TD*%
D12*
%TO.C,R38*%
X149450000Y-60490000D03*
X147625000Y-60490000D03*
%TD*%
D29*
%TO.C,R9*%
X184430000Y-85380000D03*
X186255000Y-85380000D03*
%TD*%
D20*
%TO.C,C42*%
X126400000Y-97450000D03*
X126400000Y-99350000D03*
%TD*%
D12*
%TO.C,R18*%
X188140000Y-103000000D03*
X186315000Y-103000000D03*
%TD*%
D30*
%TO.C,SW5*%
X185700000Y-141300000D03*
D31*
X180700000Y-141300000D03*
X185700000Y-126800000D03*
X180700000Y-126800000D03*
X183200000Y-126800000D03*
D32*
X188900000Y-134300000D03*
X177500000Y-134300000D03*
%TD*%
D20*
%TO.C,C9*%
X122400000Y-55720500D03*
X122400000Y-57620500D03*
%TD*%
D13*
%TO.C,R7*%
X121300000Y-124812500D03*
X121300000Y-122987500D03*
%TD*%
D33*
%TO.C,C35*%
X150000000Y-102200000D03*
X148100000Y-102200000D03*
%TD*%
D34*
%TO.C,U7*%
X151165000Y-67265000D03*
X149895000Y-67265000D03*
X148625000Y-67265000D03*
X147355000Y-67265000D03*
X147355000Y-72415000D03*
X148625000Y-72415000D03*
X149895000Y-72415000D03*
X151165000Y-72415000D03*
%TD*%
D13*
%TO.C,R32*%
X196150000Y-58682500D03*
X196150000Y-56857500D03*
%TD*%
D35*
%TO.C,U6*%
X128960000Y-68920000D03*
X128960000Y-67650000D03*
X128960000Y-66380000D03*
X128960000Y-65110000D03*
X123810000Y-65110000D03*
X123810000Y-66380000D03*
X123810000Y-67650000D03*
X123810000Y-68920000D03*
%TD*%
D29*
%TO.C,R6*%
X200480000Y-123680000D03*
X202305000Y-123680000D03*
%TD*%
%TO.C,R27*%
X137207500Y-105530000D03*
X139032500Y-105530000D03*
%TD*%
D12*
%TO.C,R11*%
X159205000Y-120182500D03*
X157380000Y-120182500D03*
%TD*%
D36*
%TO.C,E8*%
X164207500Y-73820000D03*
X159207500Y-73820000D03*
%TD*%
D29*
%TO.C,R10*%
X164217500Y-120182500D03*
X166042500Y-120182500D03*
%TD*%
%TO.C,R26*%
X133547500Y-105470000D03*
X135372500Y-105470000D03*
%TD*%
D19*
%TO.C,C25*%
X122200000Y-90200000D03*
X122200000Y-88300000D03*
%TD*%
D20*
%TO.C,C26*%
X177890000Y-90800000D03*
X177890000Y-92700000D03*
%TD*%
D37*
%TO.C,U1*%
X119250000Y-62120500D03*
X119250000Y-59820500D03*
D38*
X112950000Y-59820500D03*
D37*
X119250000Y-57520500D03*
%TD*%
D12*
%TO.C,R8*%
X184912500Y-81830000D03*
X183087500Y-81830000D03*
%TD*%
D29*
%TO.C,R14*%
X206980000Y-120180000D03*
X208805000Y-120180000D03*
%TD*%
D27*
%TO.C,E3*%
X191350000Y-72370000D03*
X187850000Y-72370000D03*
%TD*%
D29*
%TO.C,R12*%
X185712500Y-119980000D03*
X187537500Y-119980000D03*
%TD*%
D20*
%TO.C,C21*%
X110100000Y-60970500D03*
X110100000Y-62870500D03*
%TD*%
D39*
%TO.C,D6*%
X141180000Y-103442500D03*
X141180000Y-105317500D03*
%TD*%
D19*
%TO.C,C30*%
X195830000Y-97480000D03*
X195830000Y-95580000D03*
%TD*%
D13*
%TO.C,R30*%
X163770000Y-68432500D03*
X163770000Y-66607500D03*
%TD*%
D11*
%TO.C,R2*%
X116622500Y-83737500D03*
X116622500Y-85562500D03*
%TD*%
D13*
%TO.C,R39*%
X140880000Y-63012500D03*
X140880000Y-61187500D03*
%TD*%
D40*
%TO.C,H4*%
X100800000Y-54525000D03*
%TD*%
D18*
%TO.C,D3*%
X137787500Y-110430000D03*
X135912500Y-110430000D03*
%TD*%
D13*
%TO.C,R24*%
X107500000Y-62833000D03*
X107500000Y-61008000D03*
%TD*%
D41*
%TO.C,U3*%
X188720000Y-94130000D03*
X188720000Y-94630000D03*
X188720000Y-95130000D03*
X188720000Y-95630000D03*
X188720000Y-96130000D03*
X188720000Y-96630000D03*
X188720000Y-97130000D03*
D42*
X189870000Y-98280000D03*
X190370000Y-98280000D03*
X190870000Y-98280000D03*
X191370000Y-98280000D03*
X191870000Y-98280000D03*
X192370000Y-98280000D03*
X192870000Y-98280000D03*
D41*
X194020000Y-97130000D03*
X194020000Y-96630000D03*
X194020000Y-96130000D03*
X194020000Y-95630000D03*
X194020000Y-95130000D03*
X194020000Y-94630000D03*
X194020000Y-94130000D03*
D42*
X192870000Y-92980000D03*
X192370000Y-92980000D03*
X191870000Y-92980000D03*
X191370000Y-92980000D03*
X190870000Y-92980000D03*
X190370000Y-92980000D03*
X189870000Y-92980000D03*
D43*
X191370000Y-95630000D03*
%TD*%
D12*
%TO.C,R3*%
X187625000Y-123480000D03*
X185800000Y-123480000D03*
%TD*%
%TO.C,R19*%
X117412500Y-124800000D03*
X115587500Y-124800000D03*
%TD*%
D18*
%TO.C,D5*%
X109037500Y-65320500D03*
X107162500Y-65320500D03*
%TD*%
D20*
%TO.C,C41*%
X123700000Y-97450000D03*
X123700000Y-99350000D03*
%TD*%
D13*
%TO.C,R42*%
X138680000Y-63012500D03*
X138680000Y-61187500D03*
%TD*%
D44*
%TO.C,FB1*%
X121000000Y-97765000D03*
X121000000Y-99235000D03*
%TD*%
D30*
%TO.C,SW4*%
X164200000Y-141302500D03*
D31*
X159200000Y-141302500D03*
X164200000Y-126802500D03*
X159200000Y-126802500D03*
X161700000Y-126802500D03*
D32*
X167400000Y-134302500D03*
X156000000Y-134302500D03*
%TD*%
D45*
%TO.C,J1*%
X122300000Y-53395500D03*
D46*
X121650000Y-53395500D03*
X121000000Y-53395500D03*
X120350000Y-53395500D03*
D47*
X119700000Y-53395500D03*
D48*
X124200000Y-53170500D03*
X117800000Y-53170500D03*
D49*
X119800000Y-50720500D03*
X122200000Y-50720500D03*
D50*
X124300000Y-50720500D03*
X117700000Y-50720500D03*
%TD*%
D13*
%TO.C,R31*%
X212990000Y-58510000D03*
X212990000Y-56685000D03*
%TD*%
D51*
%TO.C,X1*%
X125700000Y-93550000D03*
X125700000Y-89250000D03*
%TD*%
D18*
%TO.C,D4*%
X140247500Y-107690000D03*
X138372500Y-107690000D03*
%TD*%
D22*
%TO.C,J3*%
X184320000Y-52387500D03*
X184320000Y-58387500D03*
D23*
X189670000Y-52187500D03*
X178970000Y-58687500D03*
D24*
X189670000Y-58537500D03*
D25*
X178970000Y-54287500D03*
D26*
X189670000Y-55487500D03*
%TD*%
D29*
%TO.C,R53*%
X157305000Y-123682500D03*
X159130000Y-123682500D03*
%TD*%
%TO.C,R23*%
X129207500Y-103050000D03*
X131032500Y-103050000D03*
%TD*%
D40*
%TO.C,H2*%
X219750000Y-54475000D03*
%TD*%
D11*
%TO.C,R34*%
X190270000Y-65707500D03*
X190270000Y-67532500D03*
%TD*%
D12*
%TO.C,R44*%
X149450000Y-63760000D03*
X147625000Y-63760000D03*
%TD*%
D52*
%TO.C,X2*%
X182000000Y-98620000D03*
X182000000Y-90120000D03*
%TD*%
D29*
%TO.C,R46*%
X152537500Y-109020000D03*
X154362500Y-109020000D03*
%TD*%
D13*
%TO.C,R41*%
X136470000Y-63012500D03*
X136470000Y-61187500D03*
%TD*%
D35*
%TO.C,U2*%
X219780000Y-123940000D03*
X219780000Y-122670000D03*
X219780000Y-121400000D03*
X219780000Y-120130000D03*
X214630000Y-120130000D03*
X214630000Y-121400000D03*
X214630000Y-122670000D03*
X214630000Y-123940000D03*
%TD*%
D19*
%TO.C,C31*%
X198330000Y-97480000D03*
X198330000Y-95580000D03*
%TD*%
D40*
%TO.C,H1*%
X219750000Y-138500000D03*
%TD*%
D53*
%TO.C,J5*%
X136000001Y-52110000D03*
D54*
X136500000Y-52110000D03*
X137000001Y-52110000D03*
X137500000Y-52110000D03*
D55*
X138000002Y-52110000D03*
X138500001Y-52110000D03*
D54*
X139000000Y-52110000D03*
X139500001Y-52110000D03*
X140000000Y-52110000D03*
D55*
X140500002Y-52110000D03*
X141000001Y-52110000D03*
X141500000Y-52110000D03*
D54*
X142000001Y-52110000D03*
D55*
X142500000Y-52110000D03*
X143000002Y-52110000D03*
X143500001Y-52110000D03*
D54*
X144000000Y-52110000D03*
D55*
X144500001Y-52110000D03*
D56*
X134100000Y-54035000D03*
X146399984Y-54035000D03*
%TD*%
D12*
%TO.C,R29*%
X168920000Y-73820000D03*
X167095000Y-73820000D03*
%TD*%
D14*
%TO.C,SW2*%
X123200000Y-134300000D03*
X114200000Y-134300000D03*
D15*
X121200000Y-128050000D03*
D16*
X121200000Y-140550000D03*
X116200000Y-128050000D03*
X116200000Y-140550000D03*
%TD*%
D22*
%TO.C,J4*%
X163890000Y-52387500D03*
X163890000Y-58387500D03*
D23*
X169240000Y-52187500D03*
X158540000Y-58687500D03*
D24*
X169240000Y-58537500D03*
D25*
X158540000Y-54287500D03*
D26*
X169240000Y-55487500D03*
%TD*%
D19*
%TO.C,C34*%
X186770000Y-67570000D03*
X186770000Y-65670000D03*
%TD*%
D11*
%TO.C,R35*%
X159107500Y-66620000D03*
X159107500Y-68445000D03*
%TD*%
D57*
%TO.C,U4*%
X129037500Y-80150000D03*
X129037500Y-80650000D03*
X129037500Y-81150000D03*
X129037500Y-81650000D03*
X129037500Y-82150000D03*
X129037500Y-82650000D03*
X129037500Y-83150000D03*
X129037500Y-83650000D03*
X129037500Y-84150000D03*
X129037500Y-84650000D03*
X129037500Y-85150000D03*
X129037500Y-85650000D03*
X129037500Y-86150000D03*
X129037500Y-86650000D03*
X129037500Y-87150000D03*
X129037500Y-87650000D03*
X129037500Y-88150000D03*
X129037500Y-88650000D03*
X129037500Y-89150000D03*
X129037500Y-89650000D03*
X129037500Y-90150000D03*
X129037500Y-90650000D03*
X129037500Y-91150000D03*
X129037500Y-91650000D03*
X129037500Y-92150000D03*
X129037500Y-92650000D03*
X129037500Y-93150000D03*
X129037500Y-93650000D03*
X129037500Y-94150000D03*
X129037500Y-94650000D03*
X129037500Y-95150000D03*
X129037500Y-95650000D03*
X129037500Y-96150000D03*
X129037500Y-96650000D03*
X129037500Y-97150000D03*
X129037500Y-97650000D03*
D58*
X130950000Y-99562500D03*
X131450000Y-99562500D03*
X131950000Y-99562500D03*
X132450000Y-99562500D03*
X132950000Y-99562500D03*
X133450000Y-99562500D03*
X133950000Y-99562500D03*
X134450000Y-99562500D03*
X134950000Y-99562500D03*
X135450000Y-99562500D03*
X135950000Y-99562500D03*
X136450000Y-99562500D03*
X136950000Y-99562500D03*
X137450000Y-99562500D03*
X137950000Y-99562500D03*
X138450000Y-99562500D03*
X138950000Y-99562500D03*
X139450000Y-99562500D03*
X139950000Y-99562500D03*
X140450000Y-99562500D03*
X140950000Y-99562500D03*
X141450000Y-99562500D03*
X141950000Y-99562500D03*
X142450000Y-99562500D03*
X142950000Y-99562500D03*
X143450000Y-99562500D03*
X143950000Y-99562500D03*
X144450000Y-99562500D03*
X144950000Y-99562500D03*
X145450000Y-99562500D03*
X145950000Y-99562500D03*
X146450000Y-99562500D03*
X146950000Y-99562500D03*
X147450000Y-99562500D03*
X147950000Y-99562500D03*
X148450000Y-99562500D03*
D57*
X150362500Y-97650000D03*
X150362500Y-97150000D03*
X150362500Y-96650000D03*
X150362500Y-96150000D03*
X150362500Y-95650000D03*
X150362500Y-95150000D03*
X150362500Y-94650000D03*
X150362500Y-94150000D03*
X150362500Y-93650000D03*
X150362500Y-93150000D03*
X150362500Y-92650000D03*
X150362500Y-92150000D03*
X150362500Y-91650000D03*
X150362500Y-91150000D03*
X150362500Y-90650000D03*
X150362500Y-90150000D03*
X150362500Y-89650000D03*
X150362500Y-89150000D03*
X150362500Y-88650000D03*
X150362500Y-88150000D03*
X150362500Y-87650000D03*
X150362500Y-87150000D03*
X150362500Y-86650000D03*
X150362500Y-86150000D03*
X150362500Y-85650000D03*
X150362500Y-85150000D03*
X150362500Y-84650000D03*
X150362500Y-84150000D03*
X150362500Y-83650000D03*
X150362500Y-83150000D03*
X150362500Y-82650000D03*
X150362500Y-82150000D03*
X150362500Y-81650000D03*
X150362500Y-81150000D03*
X150362500Y-80650000D03*
X150362500Y-80150000D03*
D58*
X148450000Y-78237500D03*
X147950000Y-78237500D03*
X147450000Y-78237500D03*
X146950000Y-78237500D03*
X146450000Y-78237500D03*
X145950000Y-78237500D03*
X145450000Y-78237500D03*
X144950000Y-78237500D03*
X144450000Y-78237500D03*
X143950000Y-78237500D03*
X143450000Y-78237500D03*
X142950000Y-78237500D03*
X142450000Y-78237500D03*
X141950000Y-78237500D03*
X141450000Y-78237500D03*
X140950000Y-78237500D03*
X140450000Y-78237500D03*
X139950000Y-78237500D03*
X139450000Y-78237500D03*
X138950000Y-78237500D03*
X138450000Y-78237500D03*
X137950000Y-78237500D03*
X137450000Y-78237500D03*
X136950000Y-78237500D03*
X136450000Y-78237500D03*
X135950000Y-78237500D03*
X135450000Y-78237500D03*
X134950000Y-78237500D03*
X134450000Y-78237500D03*
X133950000Y-78237500D03*
X133450000Y-78237500D03*
X132950000Y-78237500D03*
X132450000Y-78237500D03*
X131950000Y-78237500D03*
X131450000Y-78237500D03*
X130950000Y-78237500D03*
%TD*%
D29*
%TO.C,R4*%
X178962500Y-123480000D03*
X180787500Y-123480000D03*
%TD*%
D11*
%TO.C,R21*%
X138295000Y-123025000D03*
X138295000Y-124850000D03*
%TD*%
D59*
%TO.C,E4*%
X198100000Y-93050000D03*
X198100000Y-90150000D03*
%TD*%
D13*
%TO.C,R43*%
X143040000Y-63012500D03*
X143040000Y-61187500D03*
%TD*%
D30*
%TO.C,SW6*%
X207200000Y-141300000D03*
D31*
X202200000Y-141300000D03*
X207200000Y-126800000D03*
X202200000Y-126800000D03*
X204700000Y-126800000D03*
D32*
X210400000Y-134300000D03*
X199000000Y-134300000D03*
%TD*%
D13*
%TO.C,R16*%
X176420000Y-101392500D03*
X176420000Y-99567500D03*
%TD*%
D14*
%TO.C,SW1*%
X106562500Y-84590000D03*
X106562500Y-93590000D03*
D60*
X100312500Y-86590000D03*
D16*
X112812500Y-86590000D03*
X100312500Y-91590000D03*
X112812500Y-91590000D03*
%TD*%
D20*
%TO.C,C33*%
X182020000Y-65670000D03*
X182020000Y-67570000D03*
%TD*%
D61*
%TO.C,J7*%
X149060000Y-116000000D03*
D62*
X146520000Y-116000000D03*
X143980000Y-116000000D03*
%TD*%
D18*
%TO.C,D1*%
X130997500Y-105460000D03*
X129122500Y-105460000D03*
%TD*%
D40*
%TO.C,H3*%
X101019581Y-138180419D03*
%TD*%
D13*
%TO.C,R54*%
X172800000Y-80412500D03*
X172800000Y-78587500D03*
%TD*%
D20*
%TO.C,C12*%
X122400000Y-59710500D03*
X122400000Y-61610500D03*
%TD*%
D13*
%TO.C,R25*%
X134210000Y-63012500D03*
X134210000Y-61187500D03*
%TD*%
D20*
%TO.C,C20*%
X116622500Y-87950000D03*
X116622500Y-89850000D03*
%TD*%
D11*
%TO.C,R17*%
X190870000Y-104367500D03*
X190870000Y-106192500D03*
%TD*%
D17*
%TO.C,E7*%
X209520000Y-72020000D03*
X209520000Y-67020000D03*
%TD*%
D61*
%TO.C,J6*%
X169630000Y-99670000D03*
D62*
X169630000Y-97130000D03*
X169630000Y-94590000D03*
X169630000Y-92050000D03*
X169630000Y-89510000D03*
X169630000Y-86970000D03*
%TD*%
D12*
%TO.C,R52*%
X166042500Y-123682500D03*
X164217500Y-123682500D03*
%TD*%
D19*
%TO.C,C17*%
X110100000Y-58570500D03*
X110100000Y-56670500D03*
%TD*%
D29*
%TO.C,R45*%
X142417500Y-107720000D03*
X144242500Y-107720000D03*
%TD*%
%TO.C,R20*%
X140892500Y-124850000D03*
X142717500Y-124850000D03*
%TD*%
D20*
%TO.C,C27*%
X177880000Y-95800000D03*
X177880000Y-97700000D03*
%TD*%
D59*
%TO.C,E5*%
X202000000Y-95550000D03*
X202000000Y-92650000D03*
%TD*%
M02*
